{
  "source": "C:\\Users\\Peter\\Desktop\\stuff\\MIUN\\quantitative_research\\video_compression\\videos\\BVI-HD\\BVI-HD_CDVL_videos\\ORIG\\PlasmaSlowRandom_1920x1080_60fps.mp4",
  "output": "C:\\Users\\Peter\\Desktop\\stuff\\MIUN\\quantitative_research\\video_compression\\compressed_videos\\BVI-HD\\av1\\3\\PlasmaSlowRandom_1920x1080_60fps_av1.mkv",
  "codec": "av1",
  "ok": "Input #0, mov,mp4,m4a,3gp,3g2,mj2, from 'C:\\Users\\Peter\\Desktop\\stuff\\MIUN\\quantitative_research\\video_compression\\videos\\BVI-HD\\BVI-HD_CDVL_videos\\ORIG\\PlasmaSlowRandom_1920x1080_60fps.mp4':\n  Metadata:\n    major_brand     : isom\n    minor_version   : 512\n    compatible_brands: isomiso2avc1mp41\n    encoder         : Lavf54.28.101\n  Duration: 00:00:05.00, start: 0.000000, bitrate: 23030 kb/s\n  Stream #0:0[0x1](und): Video: h264 (High 4:4:4 Predictive) (avc1 / 0x31637661), yuv420p(progressive), 1920x1080, 23026 kb/s, 60 fps, 60 tbr, 60 tbn (default)\n    Metadata:\n      handler_name    : VideoHandler\n      vendor_id       : [0][0][0][0]\n[out#0/matroska @ 000002104fad4d00] Codec AVOption b:a (set bitrate (in bits/s)) has not been used for any stream. The most likely reason is either wrong type (e.g. a video option with no video streams) or that it is a private option of some decoder which was not actually used for any stream.\nStream mapping:\n  Stream #0:0 -> #0:0 (h264 (native) -> av1 (libsvtav1))\nPress [q] to stop, [?] for help\nSvt[info]: -------------------------------------------\nSvt[info]: SVT [version]:\tSVT-AV1 Encoder Lib v3.1.0-19-g6ecfe8ec\nSvt[info]: SVT [build]  :\tGCC 15.2.0\t 64 bit\nSvt[info]: LIB Build date: Aug 17 2025 11:37:13\nSvt[info]: -------------------------------------------\nSvt[info]: Level of Parallelism: 5\nSvt[info]: Number of PPCS 93\nSvt[info]: [asm level on system : up to avx2]\nSvt[info]: [asm level selected : up to avx2]\nSvt[info]: -------------------------------------------\nSvt[info]: SVT [config]: main profile\ttier (auto)\tlevel (auto)\nSvt[info]: SVT [config]: width / height / fps numerator / fps denominator \t\t: 1920 / 1080 / 60 / 1\nSvt[info]: SVT [config]: bit-depth / color format \t\t\t\t\t: 8 / YUV420\nSvt[info]: SVT [config]: preset / tune / pred struct \t\t\t\t\t: 4 / PSNR / random access\nSvt[info]: SVT [config]: gop size / mini-gop size / key-frame type \t\t\t: 321 / 16 / key frame\nSvt[info]: SVT [config]: BRC mode / target bitrate (kbps)\t\t\t\t: VBR / 3000 \nSvt[info]: SVT [config]: AQ mode / Variance Boost \t\t\t\t\t: 2 / 0\nSvt[info]: SVT [config]: sharpness / luminance-based QP bias \t\t\t\t: 0 / 0\nSvt[info]: SVT [config]: QP scale compress strength \t\t\t\t\t: 0\nSvt[info]: -------------------------------------------\nOutput #0, matroska, to 'C:\\Users\\Peter\\Desktop\\stuff\\MIUN\\quantitative_research\\video_compression\\compressed_videos\\BVI-HD\\av1\\3\\PlasmaSlowRandom_1920x1080_60fps_av1.mkv':\n  Metadata:\n    major_brand     : isom\n    minor_version   : 512\n    compatible_brands: isomiso2avc1mp41\n    encoder         : Lavf62.3.100\n  Stream #0:0(und): Video: av1 (AV01 / 0x31305641), yuv420p(tv, progressive), 1920x1080, q=2-31, 3000 kb/s, 60 fps, 1k tbn (default)\n    Metadata:\n      encoder         : Lavc62.11.100 libsvtav1\n      handler_name    : VideoHandler\n      vendor_id       : [0][0][0][0]\n    Side data:\n      cpb: bitrate max/min/avg: 0/0/3000000 buffer size: 3000000 vbv_delay: N/A\nframe=    0 fps=0.0 q=0.0 size=       0KiB time=N/A bitrate=N/A speed=N/A elapsed=0:00:01.02    \nframe=    0 fps=0.0 q=0.0 size=       0KiB time=N/A bitrate=N/A speed=N/A elapsed=0:00:01.55    \nframe=    1 fps=0.5 q=8.0 size=       1KiB time=00:00:00.00 bitrate=N/A speed=   0x elapsed=0:00:02.08    \nframe=    1 fps=0.4 q=8.0 size=       1KiB time=00:00:00.00 bitrate=N/A speed=   0x elapsed=0:00:02.60    \nframe=    5 fps=1.6 q=16.0 size=       1KiB time=00:00:00.06 bitrate=  85.4kbits/s speed=0.0214x elapsed=0:00:03.12    \nframe=    8 fps=2.2 q=19.0 size=       1KiB time=00:00:00.10 bitrate=  57.0kbits/s speed=0.0274x elapsed=0:00:03.65    \nframe=   13 fps=3.1 q=14.0 size=       1KiB time=00:00:00.20 bitrate=  28.5kbits/s speed=0.0478x elapsed=0:00:04.18    \nframe=   19 fps=4.0 q=14.0 size=       1KiB time=00:00:00.30 bitrate=  19.0kbits/s speed=0.0638x elapsed=0:00:04.70    \nframe=   22 fps=4.2 q=14.0 size=       1KiB time=00:00:00.35 bitrate=  16.3kbits/s speed=0.0672x elapsed=0:00:05.21    \nframe=   28 fps=4.9 q=13.0 size=       1KiB time=00:00:00.45 bitrate=  12.7kbits/s speed=0.0785x elapsed=0:00:05.73    \nframe=   36 fps=5.7 q=14.0 size=       1KiB time=00:00:00.58 bitrate=   9.8kbits/s speed=0.093x elapsed=0:00:06.27    \nframe=   39 fps=5.7 q=13.0 size=       1KiB time=00:00:00.63 bitrate=   9.0kbits/s speed=0.0933x elapsed=0:00:06.78    \nframe=   45 fps=6.1 q=12.0 size=       1KiB time=00:00:00.73 bitrate=   7.8kbits/s speed= 0.1x elapsed=0:00:07.32    \nframe=   51 fps=6.5 q=14.0 size=       1KiB time=00:00:00.83 bitrate=   6.8kbits/s speed=0.106x elapsed=0:00:07.84    \nframe=   55 fps=6.6 q=13.0 size=       1KiB time=00:00:00.90 bitrate=   6.3kbits/s speed=0.108x elapsed=0:00:08.35    \nframe=   60 fps=6.8 q=14.0 size=       1KiB time=00:00:00.98 bitrate=   5.8kbits/s speed=0.111x elapsed=0:00:08.86    \nframe=   67 fps=7.1 q=14.0 size=       1KiB time=00:00:01.10 bitrate=   5.2kbits/s speed=0.117x elapsed=0:00:09.38    \nframe=   71 fps=7.2 q=14.0 size=       1KiB time=00:00:01.16 bitrate=   4.9kbits/s speed=0.118x elapsed=0:00:09.89    \nframe=   76 fps=7.3 q=15.0 size=       1KiB time=00:00:01.25 bitrate=   4.6kbits/s speed=0.12x elapsed=0:00:10.44    \nframe=   83 fps=7.6 q=14.0 size=       1KiB time=00:00:01.36 bitrate=   4.2kbits/s speed=0.125x elapsed=0:00:10.96    \nframe=   87 fps=7.6 q=14.0 size=       1KiB time=00:00:01.43 bitrate=   4.0kbits/s speed=0.125x elapsed=0:00:11.48    \nframe=   92 fps=7.7 q=16.0 size=       1KiB time=00:00:01.51 bitrate=   3.8kbits/s speed=0.126x elapsed=0:00:12.00    \nframe=   99 fps=7.9 q=14.0 size=       1KiB time=00:00:01.63 bitrate=   3.5kbits/s speed=0.131x elapsed=0:00:12.51    \nframe=  103 fps=7.9 q=14.0 size=       1KiB time=00:00:01.70 bitrate=   3.4kbits/s speed=0.13x elapsed=0:00:13.02    \nframe=  108 fps=8.0 q=19.0 size=       1KiB time=00:00:01.78 bitrate=   3.2kbits/s speed=0.132x elapsed=0:00:13.55    \nframe=  114 fps=8.1 q=17.0 size=       1KiB time=00:00:01.88 bitrate=   3.0kbits/s speed=0.134x elapsed=0:00:14.06    \nframe=  118 fps=8.1 q=19.0 size=       1KiB time=00:00:01.95 bitrate=   2.9kbits/s speed=0.134x elapsed=0:00:14.58    \nframe=  123 fps=8.1 q=14.0 size=       1KiB time=00:00:02.03 bitrate=   2.8kbits/s speed=0.135x elapsed=0:00:15.10    \nframe=  129 fps=8.3 q=5.0 size=       1KiB time=00:00:02.13 bitrate=   2.7kbits/s speed=0.137x elapsed=0:00:15.61    \nframe=  134 fps=8.3 q=19.0 size=       1KiB time=00:00:02.21 bitrate=   2.6kbits/s speed=0.137x elapsed=0:00:16.13    \nframe=  140 fps=8.4 q=19.0 size=       1KiB time=00:00:02.30 bitrate=   2.5kbits/s speed=0.138x elapsed=0:00:16.65    \nframe=  147 fps=8.6 q=18.0 size=       1KiB time=00:00:02.43 bitrate=   2.3kbits/s speed=0.142x elapsed=0:00:17.19    \nframe=  151 fps=8.5 q=18.0 size=       1KiB time=00:00:02.50 bitrate=   2.3kbits/s speed=0.141x elapsed=0:00:17.71    \nframe=  157 fps=8.6 q=15.0 size=       1KiB time=00:00:02.60 bitrate=   2.2kbits/s speed=0.143x elapsed=0:00:18.23    \nframe=  163 fps=8.7 q=18.0 size=       1KiB time=00:00:02.70 bitrate=   2.1kbits/s speed=0.144x elapsed=0:00:18.73    \nframe=  167 fps=8.7 q=18.0 size=       1KiB time=00:00:02.76 bitrate=   2.1kbits/s speed=0.144x elapsed=0:00:19.26    \nframe=  173 fps=8.7 q=15.0 size=       1KiB time=00:00:02.85 bitrate=   2.0kbits/s speed=0.144x elapsed=0:00:19.79    \nframe=  179 fps=8.8 q=17.0 size=       1KiB time=00:00:02.96 bitrate=   1.9kbits/s speed=0.146x elapsed=0:00:20.32    \nframe=  183 fps=8.8 q=17.0 size=       1KiB time=00:00:03.03 bitrate=   1.9kbits/s speed=0.146x elapsed=0:00:20.84    \nframe=  190 fps=8.9 q=19.0 size=       1KiB time=00:00:03.15 bitrate=   1.8kbits/s speed=0.147x elapsed=0:00:21.38    \nframe=  196 fps=9.0 q=19.0 size=       1KiB time=00:00:03.25 bitrate=   1.8kbits/s speed=0.148x elapsed=0:00:21.89    \nframe=  201 fps=9.0 q=15.0 size=       1KiB time=00:00:03.33 bitrate=   1.7kbits/s speed=0.149x elapsed=0:00:22.41    \nframe=  207 fps=9.0 q=17.0 size=       1KiB time=00:00:03.43 bitrate=   1.7kbits/s speed=0.15x elapsed=0:00:22.93    \nframe=  213 fps=9.1 q=17.0 size=       1KiB time=00:00:03.53 bitrate=   1.6kbits/s speed=0.151x elapsed=0:00:23.44    \nframe=  221 fps=9.2 q=14.0 size=       1KiB time=00:00:03.66 bitrate=   1.6kbits/s speed=0.153x elapsed=0:00:23.97    \nframe=  225 fps=9.2 q=10.0 size=       1KiB time=00:00:03.73 bitrate=   1.5kbits/s speed=0.152x elapsed=0:00:24.49    \nframe=  231 fps=9.2 q=18.0 size=       1KiB time=00:00:03.83 bitrate=   1.5kbits/s speed=0.153x elapsed=0:00:25.01    \nframe=  235 fps=9.2 q=17.0 size=       1KiB time=00:00:03.90 bitrate=   1.5kbits/s speed=0.153x elapsed=0:00:25.53    \nframe=  243 fps=9.3 q=17.0 size=       1KiB time=00:00:04.03 bitrate=   1.4kbits/s speed=0.155x elapsed=0:00:26.03    \nframe=  249 fps=9.4 q=14.0 size=       1KiB time=00:00:04.13 bitrate=   1.4kbits/s speed=0.156x elapsed=0:00:26.55    \nframe=  253 fps=9.3 q=14.0 size=       1KiB time=00:00:04.20 bitrate=   1.4kbits/s speed=0.155x elapsed=0:00:27.07    \nframe=  261 fps=9.5 q=15.0 size=       1KiB time=00:00:04.33 bitrate=   1.3kbits/s speed=0.157x elapsed=0:00:27.61    \nframe=  265 fps=9.4 q=14.0 size=       1KiB time=00:00:04.40 bitrate=   1.3kbits/s speed=0.156x elapsed=0:00:28.13    \nframe=  273 fps=9.5 q=9.0 size=       1KiB time=00:00:04.53 bitrate=   1.3kbits/s speed=0.158x elapsed=0:00:28.65    \nframe=  279 fps=9.6 q=19.0 size=       1KiB time=00:00:04.63 bitrate=   1.2kbits/s speed=0.159x elapsed=0:00:29.16    \nframe=  285 fps=9.6 q=19.0 size=       1KiB time=00:00:04.73 bitrate=   1.2kbits/s speed=0.159x elapsed=0:00:29.69    \n[out#0/matroska @ 000002104fad4d00] video:1796KiB audio:0KiB subtitle:0KiB other streams:0KiB global headers:0KiB muxing overhead: 0.116411%\nframe=  300 fps= 10 q=19.0 Lsize=    1798KiB time=00:00:04.98 bitrate=2956.0kbits/s speed=0.166x elapsed=0:00:30.09    \n",
  "seconds": 30.491741180419922,
  "probe_out": {}
}